<svg xmlns="http://www.w3.org/2000/svg" viewBox="0 0 138.93 138.93"><defs><style>.cls-1{fill:#e6a08c;stroke:#fff;stroke-miterlimit:10;stroke-width:10px;}.cls-2{fill:#fff;fill-rule:evenodd;}</style></defs><title>Element 2</title><g id="Ebene_2" data-name="Ebene 2"><g id="Ebene_1-2" data-name="Ebene 1"><circle id="bg" class="cls-1" cx="69.46" cy="69.46" r="64.46"/><path class="cls-2" d="M49.72,38l19.74,19.7L89.2,38A2.81,2.81,0,0,1,93,38l7.89,7.89a2.78,2.78,0,0,1,0,3.88L81.19,69.49l19.74,19.7a2.78,2.78,0,0,1,0,3.88L93,100.91a2.72,2.72,0,0,1-3.84,0L69.46,81.17,49.75,100.91a2.74,2.74,0,0,1-3.86,0L38,93a2.72,2.72,0,0,1,0-3.84l19.74-19.7L38,49.75a2.76,2.76,0,0,1,0-3.88L45.89,38A2.72,2.72,0,0,1,49.72,38Z"/></g></g></svg>