<svg xmlns="http://www.w3.org/2000/svg" xmlns:xlink="http://www.w3.org/1999/xlink" viewBox="0 0 225.92 225.92"><defs><style>.cls-1{stroke:#7ac6b8;stroke-miterlimit:10;stroke-width:15px;fill:url(#Unbenannter_Verlauf_8);}.cls-2{fill:#c4c4c4;}.cls-3{fill:#fff;}</style><linearGradient id="Unbenannter_Verlauf_8" x1="112.96" y1="218.42" x2="112.96" y2="7.5" gradientUnits="userSpaceOnUse"><stop offset="0" stop-color="#7ac6b8"/><stop offset="0.41" stop-color="#b2c795"/><stop offset="1" stop-color="#cdd074"/></linearGradient></defs><title>button_refresh</title><g id="Ebene_2" data-name="Ebene 2"><g id="Ebene_1-2" data-name="Ebene 1"><circle id="bg" class="cls-1" cx="112.96" cy="112.96" r="105.46"/><path class="cls-2" d="M135.75,76.16h0a4.87,4.87,0,0,0,0-6.88Q127.44,61,119.17,52.68h0a4.86,4.86,0,0,0-8.28,3.44V68.27a46.77,46.77,0,0,0-26.72,79.41,4.88,4.88,0,1,0,6.9-6.89,37,37,0,0,1,19.82-62.66V88.87a4.87,4.87,0,0,0,8.3,3.88c5.51-5.51,11-11,16.5-16.52Zm7.66,12.28a4.88,4.88,0,0,1,6.89-6.9,46.78,46.78,0,0,1-28.22,79.61v11.71a4.87,4.87,0,0,1-8.29,3.69L97.29,160.06,97.2,160a4.87,4.87,0,0,1,0-6.9l16.59-16.56h0a4.85,4.85,0,0,1,8.3,3.42v11.39a37,37,0,0,0,21.33-62.88Z"/><path class="cls-3" d="M139.14,86.77A4.87,4.87,0,1,1,146,79.88a46.77,46.77,0,0,1-28.22,79.6V171.2a4.86,4.86,0,0,1-8.28,3.69c-5.51-5.51-11-11-16.52-16.5l-.09-.09a4.89,4.89,0,0,1,0-6.9c5.54-5.52,11.06-11,16.59-16.56h0a4.85,4.85,0,0,1,8.3,3.42v11.4a37,37,0,0,0,21.33-62.9ZM131.48,74.5l0,0a4.88,4.88,0,0,0,0-6.88C126,62.09,120.43,56.54,114.9,51l0,0a4.78,4.78,0,0,0-3.43-1.43,4.85,4.85,0,0,0-4.85,4.86V66.61A46.76,46.76,0,0,0,79.88,146a4.87,4.87,0,1,0,6.9-6.87,37,37,0,0,1,19.83-62.68V87.21a4.87,4.87,0,0,0,8.3,3.88l16.5-16.52Z"/></g></g></svg>