<svg xmlns="http://www.w3.org/2000/svg" viewBox="0 0 128.93 128.93"><defs><style>.cls-1{fill:#e6a08c;}.cls-2{fill:#fff;fill-rule:evenodd;}</style></defs><title>Element 3</title><g id="Ebene_2" data-name="Ebene 2"><g id="Ebene_1-2" data-name="Ebene 1"><circle id="bg" class="cls-1" cx="64.46" cy="64.46" r="64.46"/><path class="cls-2" d="M44.72,33l19.74,19.7L84.2,33A2.81,2.81,0,0,1,88,33l7.89,7.89a2.78,2.78,0,0,1,0,3.88L76.19,64.49l19.74,19.7a2.78,2.78,0,0,1,0,3.88L88,95.91a2.72,2.72,0,0,1-3.84,0L64.46,76.17,44.75,95.91a2.74,2.74,0,0,1-3.86,0L33,88a2.72,2.72,0,0,1,0-3.84l19.74-19.7L33,44.75a2.76,2.76,0,0,1,0-3.88L40.89,33A2.72,2.72,0,0,1,44.72,33Z"/></g></g></svg>