<svg xmlns="http://www.w3.org/2000/svg" xmlns:xlink="http://www.w3.org/1999/xlink" viewBox="0 0 225.92 225.92"><defs><style>.cls-1{stroke:#7ac6b8;stroke-miterlimit:10;stroke-width:15px;fill:url(#Unbenannter_Verlauf_8);}.cls-2{fill:#c3966a;}.cls-3{fill:url(#GradientFill_1192);}.cls-4,.cls-5,.cls-6,.cls-7,.cls-8{fill-rule:evenodd;}.cls-4{fill:url(#GradientFill_1193);}.cls-5{fill:url(#GradientFill_1213);}.cls-6{fill:#fcc100;}.cls-7{fill:#ac8868;}.cls-8{fill:#e84a5a;}</style><linearGradient id="Unbenannter_Verlauf_8" x1="112.96" y1="218.42" x2="112.96" y2="7.5" gradientUnits="userSpaceOnUse"><stop offset="0" stop-color="#7ac6b8"/><stop offset="0.41" stop-color="#b2c795"/><stop offset="1" stop-color="#cdd074"/></linearGradient><linearGradient id="GradientFill_1192" x1="111.61" y1="61.76" x2="111.61" y2="172.12" gradientUnits="userSpaceOnUse"><stop offset="0" stop-color="#7e5534"/><stop offset="1" stop-color="#9a6e4c"/></linearGradient><linearGradient id="GradientFill_1193" x1="111.61" y1="61.76" x2="111.61" y2="172.12" gradientUnits="userSpaceOnUse"><stop offset="0" stop-color="#7e5534"/><stop offset="1" stop-color="#845c3a"/></linearGradient><linearGradient id="GradientFill_1213" x1="111.62" y1="68.79" x2="111.62" y2="171.08" gradientUnits="userSpaceOnUse"><stop offset="0" stop-color="#916644"/><stop offset="1" stop-color="#916746"/></linearGradient></defs><title>door_back</title><g id="Ebene_2" data-name="Ebene 2"><g id="Ebene_1-2" data-name="Ebene 1"><circle id="bg" class="cls-1" cx="112.96" cy="112.96" r="105.46"/><rect class="cls-2" x="72.12" y="53.8" width="79" height="118.32"/><rect class="cls-3" x="80.08" y="61.76" width="63.06" height="110.36"/><path class="cls-4" d="M82.08,61.76h59.08a2,2,0,0,1,2,2V172.12H80.08V63.76A2,2,0,0,1,82.08,61.76Z"/><path class="cls-5" d="M91,67.74h41.15a8,8,0,0,1,8,8v96.41H83.07V75.71a8,8,0,0,1,8-8Z"/><path class="cls-6" d="M92,123.57a6.63,6.63,0,1,0-6.62-6.63A6.63,6.63,0,0,0,92,123.57Z"/><path class="cls-7" d="M72.12,124.91V113.69h1.27a5.61,5.61,0,1,1,0,11.22Z"/><path class="cls-7" d="M72.12,124.33V113.12h1.27a5.61,5.61,0,1,1,0,11.21Z"/><path class="cls-7" d="M72.12,123.76V112.54h1.27a5.61,5.61,0,1,1,0,11.22Z"/><path class="cls-7" d="M72.12,123.18V112h1.27a5.61,5.61,0,1,1,0,11.22Z"/><path class="cls-7" d="M72.12,122.6V111.39h1.27a5.61,5.61,0,1,1,0,11.21Z"/><path class="cls-7" d="M72.12,122V110.81h1.27a5.61,5.61,0,1,1,0,11.22Z"/><path class="cls-7" d="M72.12,121.45V110.23h1.27a5.61,5.61,0,1,1,0,11.22Z"/><path class="cls-7" d="M72.12,120.88V109.65h1.27a5.62,5.62,0,1,1,0,11.23Z"/><path class="cls-7" d="M72.12,120.3V109.08h1.27a5.61,5.61,0,1,1,0,11.22Z"/><path class="cls-7" d="M72.12,119.72V108.5h1.27a5.61,5.61,0,1,1,0,11.22Z"/><path class="cls-7" d="M72.12,119.15V107.92h1.27a5.62,5.62,0,1,1,0,11.23Z"/><path class="cls-7" d="M72.12,118.57V107.35h1.27a5.61,5.61,0,1,1,0,11.22Z"/><path class="cls-8" d="M56,118.57l7.69,7.69a5.61,5.61,0,0,1-7.93,7.93L38.44,116.93a5.61,5.61,0,0,1,0-7.93L55.71,91.73a5.61,5.61,0,1,1,7.93,7.93L56,107.35H73.39a5.61,5.61,0,1,1,0,11.22Z"/></g></g></svg>