<svg xmlns="http://www.w3.org/2000/svg" xmlns:xlink="http://www.w3.org/1999/xlink" viewBox="0 0 517 517"><defs><style>.cls-1{stroke:#7ac6b8;stroke-width:30px;fill:url(#Unbenannter_Verlauf_6);}.cls-1,.cls-10,.cls-12{stroke-miterlimit:10;}.cls-2{fill:#e2e2e2;}.cls-3{fill:#afaeaf;}.cls-4,.cls-7{fill:#353535;}.cls-14,.cls-4,.cls-6{fill-rule:evenodd;}.cls-5{fill:#fff;}.cls-6{fill:#4e4e4e;}.cls-8{opacity:0.13;}.cls-9{fill:#050505;}.cls-10,.cls-12{fill:none;stroke-width:3px;}.cls-10{stroke:#050505;}.cls-11{fill:url(#linear-gradient);}.cls-12{stroke:#fff;}.cls-13{opacity:0.1;}.cls-14{opacity:0.2;}.cls-15{opacity:0.4;}</style><linearGradient id="Unbenannter_Verlauf_6" x1="258.5" y1="502" x2="258.5" y2="15" gradientUnits="userSpaceOnUse"><stop offset="0" stop-color="#7ac6b8"/><stop offset="0.41" stop-color="#b2c795"/><stop offset="1" stop-color="#cdd074"/></linearGradient><linearGradient id="linear-gradient" x1="190.07" y1="257.17" x2="331.32" y2="257.17" gradientUnits="userSpaceOnUse"><stop offset="0" stop-color="#5a8892"/><stop offset="0.07" stop-color="#64919a"/><stop offset="0.24" stop-color="#7aa7ae"/><stop offset="0.5" stop-color="#8bacc0"/><stop offset="0.75" stop-color="#87b0b6"/></linearGradient></defs><title>Element 2</title><g id="Ebene_2" data-name="Ebene 2"><g id="KameraIcon"><circle id="bg" class="cls-1" cx="258.5" cy="258.5" r="243.5"/><rect id="button" class="cls-2" x="157.8" y="159.78" width="38.52" height="16.06"/><g id="lines"><path class="cls-3" d="M162,175.14h2.19V159.78H162Zm28.52-15.36v15.36h2.19V159.78Zm-6.59,15.36h2.2V159.78h-2.2Zm-15.35,0h2.19V159.78h-2.19Z"/></g><path id="black" class="cls-4" d="M138.7,172.63h244a9.65,9.65,0,0,1,9.64,9.64V325.64a9.65,9.65,0,0,1-9.64,9.64h-244a9.64,9.64,0,0,1-9.63-9.64V182.27A9.64,9.64,0,0,1,138.7,172.63Z"/><circle id="light" class="cls-5" cx="156.49" cy="217.92" r="9.87"/><g id="Base"><path class="cls-5" d="M129.07,327.84a9.63,9.63,0,0,0,9.63,9.63h244a9.64,9.64,0,0,0,9.64-9.63V318.2H129.07ZM383.54,170.75H330.89L309,144.43H230l-24.57,26H138.7a9.63,9.63,0,0,0-9.63,9.64v16.06H392.32V180.08C392.32,174.75,388.86,170.75,383.54,170.75Z"/></g><path id="outer" class="cls-6" d="M236.43,153.2h63.88c3.53,0,4.26,3,4.26,6.58V173c0,3.63-.73,6.58-4.26,6.58H236.43c-3.52,0-4.25-2.95-4.25-6.58V159.78C232.18,156.15,232.91,153.2,236.43,153.2Z"/><rect id="flash_light" class="cls-7" x="238.56" y="159.78" width="59.62" height="13.16"/><g id="lens"><g class="cls-8"><path class="cls-9" d="M262.69,185.5a70.67,70.67,0,1,0,70.63,70.67A70.65,70.65,0,0,0,262.69,185.5Z"/><path class="cls-10" d="M262.69,185.5a70.67,70.67,0,1,0,70.63,70.67A70.65,70.65,0,0,0,262.69,185.5Z"/></g><path class="cls-11" d="M260.69,186.5a70.67,70.67,0,1,0,70.63,70.67A70.65,70.65,0,0,0,260.69,186.5Z"/><path class="cls-12" d="M260.69,186.5a70.67,70.67,0,1,0,70.63,70.67A70.65,70.65,0,0,0,260.69,186.5Z"/></g><g id="shade" class="cls-13"><path class="cls-5" d="M313.16,209.92q-.62-.71-1.17-1.29Q312.59,209.26,313.16,209.92Zm5.28,6.6c.37.52.74,1,1.1,1.58C319.17,217.56,318.81,217,318.44,216.52Zm-5.28-6.6a77.36,77.36,0,0,1,5.28,6.6A70,70,0,0,0,313.16,209.92Zm12.5,19.5c.12.27.22.55.33.82l0-.09ZM321,294a70.72,70.72,0,0,0,5-63.72C333.32,249.35,332.4,274.15,321,294ZM190.07,257.17a70.48,70.48,0,0,0,20.22,49.49l98.83-100.9a70.59,70.59,0,0,0-119,51.41Zm25.71,54.49c-.38-.31-.76-.61-1.12-.92Zm0,0a70.25,70.25,0,0,0,21.46,12.17A76,76,0,0,1,215.78,311.66ZM293.05,320A79.35,79.35,0,0,1,271.33,327,70,70,0,0,0,293.05,320Z"/></g><path id="inner_shadow" class="cls-14" d="M265.54,324.13s-34.31,5.55-58.59-26.25c-20.84-27.28-11.52-57.34-11.52-57.34s1.6,35,21.21,57.63C235.77,320.25,265.54,324.13,265.54,324.13Z"/><g id="inner_shade" class="cls-15"><path class="cls-5" d="M206,258.94c0,.45.09,2.19.09,2.19l28.33-3.86c.69-1.51,1.08-3.95,1.91-6.85l-26.83-11,2.5-6.08,26.7,11c3.12-6,9.28-12.59,23-16.74.5-.15-.39-26.33-1.14-26.3A56.67,56.67,0,0,0,206,258.94Zm111.61-7.47-11.72,4.82c0,.39-.1.77-.11,1.15-1.08,29.7-25.74,43.09-42.63,43.82-.52,0-.32,9.67.42,9.64,30.75-1.33,54.7-27.19,54.08-58.06C317.64,252.38,317.6,251.47,317.6,251.47Z"/></g></g></g></svg>