<svg xmlns="http://www.w3.org/2000/svg" viewBox="0 0 16 14.35"><defs><style>.cls-1{fill:#e94b5a;}.cls-2{fill:#e00c41;}</style></defs><title>icon_heart</title><g id="Ebene_2" data-name="Ebene 2"><g id="Layer_1" data-name="Layer 1"><path class="cls-1" d="M14.54,8.07a5,5,0,0,0,1.31-2.22C16.76,2.47,13.31-.73,10,.15A5,5,0,0,0,8,1.2a5.21,5.21,0,0,0-2-1C2.67-.73-.75,2.5.14,5.85A5,5,0,0,0,1.46,8.07l6.11,6.1a.6.6,0,0,0,.86,0Z"/><path class="cls-2" d="M14.7,7.9a4.93,4.93,0,0,0,1.15-2.05C16.76,2.47,13.31-.73,10,.15A5,5,0,0,0,8,1.2Z"/></g></g></svg>