<?xml version="1.0" standalone="no"?>
<!DOCTYPE svg PUBLIC "-//W3C//DTD SVG 20010904//EN"
 "http://www.w3.org/TR/2001/REC-SVG-20010904/DTD/svg10.dtd">
<svg version="1.0" xmlns="http://www.w3.org/2000/svg"
 width="260.000000pt" height="260.000000pt" viewBox="0 0 260.000000 260.000000"
 preserveAspectRatio="xMidYMid meet">
<metadata>
Created by potrace 1.11, written by Peter Selinger 2001-2013
</metadata>
<g transform="translate(0.000000,260.000000) scale(0.100000,-0.100000)"
fill="#000000" stroke="none">
<path d="M0 1300 l0 -1300 1300 0 1300 0 0 1300 0 1300 -1300 0 -1300 0 0
-1300z m1637 1075 c38 -15 44 -22 59 -73 21 -70 24 -253 6 -362 -6 -41 -19
-120 -27 -175 -17 -111 -80 -383 -111 -476 -4 -12 7 -18 48 -28 46 -10 56 -16
69 -44 20 -46 14 -63 -34 -85 -38 -18 -60 -19 -252 -16 -285 5 -279 5 -335 3
-31 -1 -59 5 -74 14 -27 18 -39 63 -22 89 11 19 69 40 89 33 7 -3 18 -1 26 4
11 7 10 19 -7 67 -50 147 -73 240 -98 389 -42 257 -28 418 48 537 36 58 78 83
159 97 35 6 109 20 164 30 118 23 232 21 292 -4z m-437 -1292 c139 -10 306 -8
351 4 44 13 65 3 83 -41 11 -26 21 -34 48 -39 39 -6 121 -74 114 -94 -3 -7 -1
-15 3 -17 5 -3 11 -24 14 -46 4 -32 0 -51 -20 -85 -25 -46 -87 -105 -110 -105
-18 0 -20 -7 -33 -115 -12 -103 -39 -178 -72 -198 -10 -7 -18 -20 -18 -31 0
-29 -79 -95 -116 -96 -16 0 -35 -5 -42 -12 -7 -7 -12 -8 -12 -4 0 5 -7 2 -16
-5 -22 -18 -191 -20 -206 -2 -6 7 -21 13 -34 13 -19 0 -24 5 -24 25 0 16 -6
25 -15 25 -8 0 -15 -4 -15 -10 0 -5 -5 -10 -11 -10 -6 0 -8 9 -4 20 6 17 2 20
-29 20 -38 0 -45 10 -21 30 16 14 20 36 6 42 -15 6 -61 87 -61 109 0 11 -7 46
-16 76 -9 31 -17 81 -18 111 -1 55 -2 56 -36 65 -69 17 -110 77 -110 159 1 58
38 145 60 140 7 -2 21 5 31 14 17 15 92 23 128 13 9 -2 17 4 19 16 7 32 21 43
50 40 15 -2 74 -7 132 -12z"/>
<path d="M1670 916 c0 -7 6 -19 14 -25 8 -7 17 -23 20 -37 8 -32 30 -26 33 9
1 17 -6 35 -19 47 -25 23 -48 26 -48 6z"/>
<path d="M885 904 c-9 -9 -14 -23 -11 -31 3 -8 6 -21 6 -29 0 -8 5 -14 10 -14
6 0 10 11 10 24 0 13 7 29 15 36 15 12 12 30 -5 30 -5 0 -16 -7 -25 -16z"/>
</g>
</svg>
