<svg xmlns="http://www.w3.org/2000/svg" xmlns:xlink="http://www.w3.org/1999/xlink" viewBox="0 0 225.92 225.92"><defs><style>.cls-1{stroke:#7ac6b8;stroke-miterlimit:10;stroke-width:15px;fill:url(#Unbenannter_Verlauf_8);}.cls-2{fill:#f9df7f;}.cls-2,.cls-3,.cls-4{fill-rule:evenodd;}.cls-3{fill:#ececec;}.cls-4{fill:#0992a4;}</style><linearGradient id="Unbenannter_Verlauf_8" x1="112.96" y1="218.42" x2="112.96" y2="7.5" gradientUnits="userSpaceOnUse"><stop offset="0" stop-color="#7ac6b8"/><stop offset="0.41" stop-color="#b2c795"/><stop offset="1" stop-color="#cdd074"/></linearGradient></defs><title>button_go_recipe</title><g id="Ebene_2" data-name="Ebene 2"><g id="Ebene_1-2" data-name="Ebene 1"><circle id="bg" class="cls-1" cx="112.96" cy="112.96" r="105.46"/><path class="cls-2" d="M148.57,126.5a10.48,10.48,0,0,0,2.73-10.74L150,111.57h25.83c12.49,0,12.49-19,0-18.94H119L121.17,88q1-2.08,1.89-4.2c1-2.41,2-4.87,2.88-7.36a21.66,21.66,0,0,0,1.18-6.81c0-9.12-10.41-15.52-17.18-7.69a28.7,28.7,0,0,0-4,7.34A73,73,0,0,1,95.34,86.41,131.14,131.14,0,0,1,83.34,99L82,100.27l-1.77-.51a5.73,5.73,0,0,0-1.54-.22H67.76A5.79,5.79,0,0,0,62,105.26l0,41.22a5.61,5.61,0,0,0,1.68,4,5.71,5.71,0,0,0,4,1.7H78.69a5.69,5.69,0,0,0,3.48-1.2l1.55-1.22,1.79.82c3.23,1.48,6.48,2.89,9.81,4.06a44.13,44.13,0,0,0,14.24,2.81h24.3a8.78,8.78,0,0,0,8.51-10.88l-.59-2.46L144,143c4.45-2.3,5.93-8.25,3.79-12.62l-1.08-2.2Z"/><path class="cls-3" d="M84.38,98.56v52.23a3.74,3.74,0,0,1-3.71,3.74h-15a3.76,3.76,0,0,1-3.72-3.73V98.57a3.73,3.73,0,0,1,3.71-3.73h15A3.73,3.73,0,0,1,84.38,98.56Z"/><path class="cls-4" d="M79.18,95.62l0,58.12a3.75,3.75,0,0,1-3.73,3.73h-15a3.75,3.75,0,0,1-3.72-3.73l0-58.12a3.74,3.74,0,0,1,3.72-3.73h15A3.73,3.73,0,0,1,79.18,95.62Z"/><path class="cls-2" d="M72.69,148a5.13,5.13,0,1,1-5.13-5.12A5.11,5.11,0,0,1,72.69,148Z"/></g></g></svg>