<svg xmlns="http://www.w3.org/2000/svg" xmlns:xlink="http://www.w3.org/1999/xlink" viewBox="0 0 225.92 225.92"><defs><style>.cls-1{stroke:#7ac6b8;stroke-miterlimit:10;stroke-width:15px;fill:url(#Unbenannter_Verlauf_8);}.cls-2{fill:#e3e0cf;}.cls-2,.cls-3,.cls-4,.cls-5,.cls-6,.cls-7,.cls-8{fill-rule:evenodd;}.cls-3{fill:#f5cf61;}.cls-4{fill:#f49a00;}.cls-5{fill:#fcc100;}.cls-6{fill:#e84a5a;}.cls-7{fill:#0992a4;}.cls-8{fill:#fff;}</style><linearGradient id="Unbenannter_Verlauf_8" x1="112.96" y1="218.42" x2="112.96" y2="7.5" gradientUnits="userSpaceOnUse"><stop offset="0" stop-color="#7ac6b8"/><stop offset="0.41" stop-color="#b2c795"/><stop offset="1" stop-color="#cdd074"/></linearGradient></defs><title>button_change</title><g id="Ebene_2" data-name="Ebene 2"><g id="Ebene_1-2" data-name="Ebene 1"><circle id="bg" class="cls-1" cx="112.96" cy="112.96" r="105.46"/><path class="cls-2" d="M58.07,163.25V126.5h0l19.74-19.74,41.35,41.34L99.42,167.84H62.67A4.6,4.6,0,0,1,58.07,163.25Z"/><path class="cls-3" d="M58.07,126.5l53.07-53.07L120,82.32,71.3,131.05a6.16,6.16,0,0,1-8.67,0Z"/><path class="cls-4" d="M99.42,167.84l53.06-53.06-8.89-8.89L94.86,154.62a6.16,6.16,0,0,0,0,8.67Z"/><path class="cls-5" d="M120,82.32l23.57,23.57L94.87,154.62a6.13,6.13,0,0,1-8.66,0L71.3,139.71a6.13,6.13,0,0,1,0-8.66Z"/><path class="cls-6" d="M111.14,73.43l9.57-9.57a19.89,19.89,0,0,1,28.06,0l13.29,13.3a19.88,19.88,0,0,1,0,28.05l-9.58,9.57Z"/><path class="cls-7" d="M58.07,163.25V149.69l18.16,18.15H62.67A4.61,4.61,0,0,1,58.07,163.25Z"/><path class="cls-8" d="M111.67,72.91,153,114.25a3.67,3.67,0,0,1,0,5.2l-12.59,12.6a3.69,3.69,0,0,1-5.2,0L93.87,90.71a3.69,3.69,0,0,1,0-5.2l12.6-12.6A3.69,3.69,0,0,1,111.67,72.91Z"/></g></g></svg>